<svg width="25" height="24" viewBox="0 0 25 24" fill="none" xmlns="http://www.w3.org/2000/svg">
<g clip-path="url(#clip0_1755_67364)">
<path d="M6.04578 14.4635L5.23886 17.4759L2.28956 17.5383C1.40815 15.9035 0.908203 14.0331 0.908203 12.0454C0.908203 10.1233 1.37564 8.31081 2.20421 6.71484H2.20485L4.83055 7.19623L5.98076 9.80618C5.74003 10.508 5.60881 11.2614 5.60881 12.0454C5.6089 12.8962 5.76303 13.7115 6.04578 14.4635Z" fill="#FBBB00"/>
<path d="M23.8875 9.87994C24.0206 10.5811 24.09 11.3052 24.09 12.0453C24.09 12.8751 24.0027 13.6846 23.8365 14.4654C23.2723 17.1224 21.7979 19.4424 19.7555 21.0843L19.7549 21.0836L16.4477 20.9149L15.9796 17.9929C17.3349 17.1982 18.394 15.9544 18.9519 14.4654H12.7539V9.87994H19.0423H23.8875Z" fill="#518EF8"/>
<path d="M19.7544 21.084L19.755 21.0847C17.7687 22.6813 15.2454 23.6366 12.4986 23.6366C8.08452 23.6366 4.24679 21.1694 2.28906 17.5386L6.04529 14.4639C7.02413 17.0763 9.5442 18.9359 12.4986 18.9359C13.7685 18.9359 14.9582 18.5926 15.9791 17.9933L19.7544 21.084Z" fill="#28B446"/>
<path d="M19.8984 3.12303L16.1435 6.19716C15.0869 5.53675 13.838 5.15525 12.5 5.15525C9.47869 5.15525 6.91148 7.10021 5.98168 9.80628L2.20571 6.71495H2.20508C4.13415 2.99567 8.02027 0.45459 12.5 0.45459C15.3124 0.45459 17.891 1.45639 19.8984 3.12303Z" fill="#F14336"/>
</g>
<defs>
<clipPath id="clip0_1755_67364">
<rect width="23.1818" height="23.1818" fill="white" transform="translate(0.908203 0.45459)"/>
</clipPath>
</defs>
</svg>
