<svg width="141" height="32" viewBox="0 0 141 32" fill="none" xmlns="http://www.w3.org/2000/svg">
<g clip-path="url(#clip0_9110_11694)">
<path d="M16.768 4.65394H4.6226V12.0244H16.4153V16.3855H4.6226V26.6379H16.768V30.9735H0.0617676V0.318359H16.768V4.65394Z" fill="#5E3B76"/>
<path d="M22.7398 30.9732H17.3474L32.819 11.6416H38.2365L22.7398 30.9732ZM32.3906 22.047L39.3453 30.9732H34.1041L29.7196 25.2859L32.3906 22.047ZM24.554 18.7826L18.9853 11.6416H24.2517L27.1998 15.5436L24.554 18.7826Z" fill="#5E3B76"/>
<path d="M53.7333 11.6419H58.1681V30.9735H53.7333V28.9588C51.919 30.693 49.9536 31.5346 47.8622 31.5346C45.2164 31.5346 43.0493 30.5655 41.3107 28.6272C39.5972 26.6634 38.7405 24.1896 38.7405 21.2312C38.7405 18.3238 39.5972 15.9265 41.3107 13.9882C42.9233 12.101 45.292 11.0298 47.7362 11.0808C49.9536 11.0808 51.9442 11.999 53.7081 13.8607L53.7333 11.6419ZM43.2509 21.2567C43.2509 23.1185 43.7297 24.6232 44.7124 25.7963C45.6447 26.944 47.0558 27.5816 48.5173 27.5561C50.1552 27.5561 51.4655 26.995 52.4734 25.8473C53.4813 24.6742 53.9853 23.1695 53.9853 21.3587C53.9853 19.548 53.4813 18.0433 52.4734 16.8701C51.4907 15.7225 50.0544 15.0849 48.5425 15.1359C47.081 15.1104 45.6699 15.748 44.7376 16.8956C43.7549 18.0433 43.2509 19.497 43.2509 21.2567Z" fill="#5E3B76"/>
<path d="M61.7212 11.6416H66.1309V13.4268C66.9876 12.5342 67.7184 11.9221 68.2979 11.5906C69.0539 11.2335 69.8854 11.055 70.7169 11.0805C72.8839 11.0805 74.5722 12.0241 75.8321 13.9369C77.218 12.0241 79.0827 11.0805 81.4513 11.0805C85.7601 11.0805 87.902 13.7329 87.902 19.0121V30.9732H83.4671V20.2363C83.4671 18.3745 83.2403 17.0738 82.812 16.3087C82.3584 15.5436 81.6025 15.1611 80.5441 15.1356C79.3346 15.1356 78.4527 15.5946 77.8983 16.5383C77.344 17.4564 77.0668 18.9611 77.0668 21.0014V30.9987H72.632V20.2873C72.632 16.8443 71.6492 15.1356 69.6838 15.1356C68.4491 15.1356 67.542 15.5946 66.9624 16.5383C66.3829 17.4819 66.1057 18.9611 66.1057 20.9759V30.9732H61.696L61.7212 11.6416Z" fill="#5E3B76"/>
<path d="M90.8245 3.58277C90.8245 2.81767 91.1268 2.07807 91.6812 1.568C92.7899 0.44585 94.6041 0.420346 95.7381 1.568C96.2924 2.10357 96.5948 2.84317 96.5948 3.60828C96.62 4.37338 96.2924 5.13848 95.7381 5.67405C95.2089 6.23513 94.4782 6.54117 93.7222 6.54117C92.9411 6.56667 92.2103 6.23513 91.6812 5.67405C91.1268 5.13848 90.8245 4.37338 90.8245 3.58277ZM95.9144 11.6419V30.9735H91.5048V11.6419H95.9144Z" fill="#5E3B76"/>
<path d="M99.4934 11.642H103.928V13.4273C105.465 11.8715 107.204 11.1064 109.144 11.1064C111.362 11.1064 113.1 11.8205 114.335 13.2232C115.419 14.4219 115.948 16.3857 115.948 19.1145V30.9736H111.513V20.1857C111.513 18.2729 111.261 16.9722 110.732 16.2326C110.203 15.5185 109.27 15.136 107.96 15.1105C106.498 15.1105 105.465 15.5951 104.835 16.5897C104.205 17.5843 103.928 19.242 103.928 21.6394V30.9481H99.4934V11.642Z" fill="#5E3B76"/>
<path d="M136.912 22.3531H123.229C123.355 23.9343 123.859 25.2095 124.766 26.1531C125.674 27.0967 126.933 27.5813 128.244 27.5303C129.201 27.5813 130.159 27.3008 130.965 26.7397C131.671 26.2041 132.477 25.235 133.384 23.8068L137.113 25.8981C136.584 26.8162 135.98 27.6578 135.299 28.4484C134.694 29.137 134.014 29.7236 133.233 30.2082C132.502 30.6672 131.696 30.9988 130.864 31.2028C129.957 31.4323 129.025 31.5343 128.093 31.5088C125.245 31.5088 122.952 30.5907 121.239 28.729C119.525 26.8672 118.643 24.3934 118.643 21.3075C118.643 18.247 119.475 15.7732 121.163 13.886C122.851 11.9987 125.069 11.0551 127.866 11.0806C130.688 11.0806 132.905 11.9987 134.543 13.8095C136.181 15.6202 136.987 18.1195 136.987 21.3075L136.912 22.3531ZM132.376 18.7061C131.771 16.3343 130.285 15.1356 127.916 15.1356C127.412 15.1356 126.883 15.2121 126.404 15.3907C125.951 15.5437 125.497 15.7987 125.119 16.1048C124.741 16.4108 124.388 16.7934 124.136 17.2269C123.859 17.686 123.633 18.196 123.507 18.7061H132.376Z" fill="#5E3B76"/>
<path d="M135.476 6.5924H134.518V6.23535H136.862V6.5924H135.879V9.47429H135.476V6.5924Z" fill="#5E3B76"/>
<path d="M137.416 6.23535H137.894L138.499 7.96959C138.575 8.19912 138.65 8.42865 138.726 8.63268H138.751C138.827 8.40314 138.902 8.17361 138.978 7.96959L139.583 6.23535H140.061V9.47429H139.683V7.68905C139.683 7.40851 139.709 7.02596 139.734 6.74542H139.709L139.457 7.48502L138.852 9.16825H138.575L137.97 7.48502L137.718 6.74542H137.693C137.718 7.02596 137.743 7.40851 137.743 7.68905V9.47429H137.39V6.23535H137.416Z" fill="#5E3B76"/>
</g>
<defs>
<clipPath id="clip0_9110_11694">
<rect width="140" height="31.2162" fill="white" transform="translate(0.0617676 0.318359)"/>
</clipPath>
</defs>
</svg>
